/* XPM */
static char *bd728f2d6b624926f032c3ef34ac10d8[] = {
/* columns rows colors chars-per-pixel */
"16 16 103 2 ",
"   c black",
".  c #010000",
"X  c #000001",
"o  c #020000",
"O  c #030000",
"+  c #020100",
"@  c #040000",
"#  c #050000",
"$  c #090000",
"%  c #0A0100",
"&  c #090300",
"*  c #0F0000",
"=  c #0E0100",
"-  c #0F0100",
";  c #100200",
":  c #130300",
">  c #150000",
",  c #170000",
"<  c #140200",
"1  c #170505",
"2  c #190000",
"3  c #1B0000",
"4  c #190200",
"5  c #180300",
"6  c #1D0000",
"7  c #1C0001",
"8  c #1D0400",
"9  c #210000",
"0  c #270000",
"q  c #220700",
"w  c #250400",
"e  c #240600",
"r  c #2D0000",
"t  c #2C0001",
"y  c #280500",
"u  c #200800",
"i  c #250A01",
"p  c #2B0800",
"a  c #310001",
"s  c #350001",
"d  c #360000",
"f  c #320700",
"g  c #3A0000",
"h  c #3D0000",
"j  c #330B01",
"k  c #310B05",
"l  c #391701",
"z  c #400000",
"x  c #430000",
"c  c #470900",
"v  c #400F00",
"b  c #450D01",
"n  c #4F0C00",
"m  c #4E0E00",
"M  c #4C0805",
"N  c #5B0000",
"B  c #5D0000",
"V  c #550801",
"C  c #530A05",
"Z  c #471309",
"A  c #571100",
"S  c #650000",
"D  c #760400",
"F  c #671400",
"G  c #731500",
"H  c #7B1001",
"J  c #7D1201",
"K  c #7B1900",
"L  c #5D320B",
"P  c #880000",
"I  c #8D0000",
"U  c #890E05",
"Y  c #9E1A00",
"T  c #A11E00",
"R  c #802203",
"E  c #942B01",
"W  c #853303",
"Q  c #8F3D00",
"!  c #903A01",
"~  c #AD2A00",
"^  c #B12200",
"/  c #BA2301",
"(  c #CE3605",
")  c #B6460E",
"_  c #CE4000",
"`  c #C45201",
"'  c #E04A00",
"]  c #E05400",
"[  c #D67504",
"{  c #EC6905",
"}  c #F46C00",
"|  c #F07501",
" . c #E17212",
".. c #EA8C03",
"X. c #F58500",
"o. c #F68703",
"O. c #E59817",
"+. c #FABE11",
"@. c #EDAB2E",
"#. c #F6A530",
"$. c #FBC31B",
"%. c #F9DF6E",
"&. c None",
/* pixels */
"&.&.                        &.&.",
"&.                            &.",
"                                ",
"                                ",
"        # - u p W [ O. .Q       ",
"  # - 4 y V T _ ) n 4 < 4 $.    ",
"$ q v A G Y ( ..b x g t 6 y E   ",
"< C J ~ ] X.+.} D I B z a 6 L   ",
"; c J / ' { o.| S P B h t 4 %.  ",
"# : f m F K ` R Z z d 0 6 ! -   ",
"  # $ : 8 y M U ^ #.< 6 i @.    ",
"            $ 1 ; k j d l       ",
"                                ",
"                                ",
"&.                            &.",
"&.&.                        &.&."
};
