/* XPM */
static char *fb45262638a04aed8cc1bb62dabd913f[] = {
/* columns rows colors chars-per-pixel */
"32 32 154 2 ",
"   c #000000",
".  c #0B0100",
"X  c #130100",
"o  c #1B0200",
"O  c #230200",
"+  c #2C0101",
"@  c #250A01",
"#  c #2B0900",
"$  c #330100",
"%  c #3B0100",
"&  c #330900",
"*  c #3C0A00",
"=  c #361200",
"-  c #391300",
";  c #440100",
":  c #4A0100",
">  c #430A00",
",  c #4D0E01",
"<  c #540100",
"1  c #5B0300",
"2  c #560B02",
"3  c #5B0C01",
"4  c #431302",
"5  c #4D1800",
"6  c #421009",
"7  c #541201",
"8  c #5A1101",
"9  c #561C01",
"0  c #610000",
"q  c #6D0100",
"w  c #650C00",
"e  c #730000",
"r  c #7C0000",
"t  c #700A02",
"y  c #790F01",
"u  c #621203",
"i  c #6D1304",
"p  c #651901",
"a  c #6B1901",
"s  c #751400",
"d  c #7A1401",
"f  c #721A00",
"g  c #7F1A00",
"h  c #771E08",
"j  c #761D10",
"k  c #5A2500",
"l  c #5D2B01",
"z  c #722500",
"x  c #792300",
"c  c #722E01",
"v  c #870000",
"b  c #8A0000",
"n  c #990000",
"m  c #8B1001",
"M  c #831900",
"N  c #961601",
"B  c #9D1601",
"V  c #931C01",
"C  c #9D1D0A",
"Z  c #A41503",
"A  c #A21C00",
"S  c #B11900",
"D  c #8F2302",
"F  c #842A02",
"G  c #862008",
"H  c #952201",
"J  c #9B2100",
"K  c #9C2A00",
"L  c #952209",
"P  c #8F3800",
"I  c #89330B",
"U  c #85380A",
"Y  c #892C14",
"T  c #AA2A02",
"R  c #B42600",
"E  c #BB2D01",
"W  c #B72C0D",
"Q  c #A53706",
"!  c #AB3300",
"~  c #BC3500",
"^  c #B43A01",
"/  c #BA3B01",
"(  c #C52700",
")  c #C53600",
"_  c #C73F02",
"`  c #CF3F00",
"'  c #D33400",
"]  c #D63A05",
"[  c #A24400",
"{  c #BB4901",
"}  c #B75A04",
"|  c #B95800",
" . c #A84C11",
".. c #A95012",
"X. c #9D651D",
"o. c #995725",
"O. c #C34301",
"+. c #D24401",
"@. c #DD4401",
"#. c #D34903",
"$. c #DB4B01",
"%. c #D2440A",
"&. c #C35302",
"*. c #CC5400",
"=. c #D75100",
"-. c #DB5C01",
";. c #C85715",
":. c #E05503",
">. c #E35B02",
",. c #EB5C01",
"<. c #E85C0A",
"1. c #F05E01",
"2. c #CC6003",
"3. c #C4610E",
"4. c #DD6C06",
"5. c #D86B0A",
"6. c #C76513",
"7. c #DA7513",
"8. c #E36A04",
"9. c #F16D01",
"0. c #E57103",
"q. c #EC7201",
"w. c #F37604",
"e. c #F57D01",
"r. c #F17B0E",
"t. c #DA7E24",
"y. c #B88A2E",
"u. c #EC880B",
"i. c #F58302",
"p. c #F79600",
"a. c #FB9500",
"s. c #F59D03",
"d. c #F89F00",
"f. c #F79B0D",
"g. c #E88315",
"h. c #E3891A",
"j. c #F69610",
"k. c #F5A505",
"l. c #F6A20C",
"z. c #DF8E39",
"x. c #ED8B22",
"c. c #E5A427",
"v. c #EAA228",
"b. c #F1B22A",
"n. c #E0A934",
"m. c #F7AE38",
"M. c #FCC903",
"N. c #F6C518",
"B. c #F9D81D",
"V. c #FDEA33",
"C. c #FBD342",
"Z. c #FCD567",
"A. c #FDFAB7",
"S. c None",
/* pixels */
"S.S.S.S.S.                                              S.S.S.S.",
"S.S.S.                                                    S.S.S.",
"S.S.                                                        S.S.",
"S.                                                            S.",
"                                                              S.",
"                                                                ",
"                                                                ",
"                                  X       . .                   ",
"                      .       O o O &.5.o z t.F 8 o             ",
"            . . . . . @ o # 9 x { w.8.| =.;. .m.q.2.            ",
"          . X X o o o & y B E ' +.x 6.# X X X . + f u.          ",
"    . . X X @ # & > 2 w V ! *.*.{ > % O o O o o X o U C.4       ",
"  . . o O & * , j d N S ] ,.&.c.v.7.$ $ $ + + O O X X X -.      ",
". X # - 7 p h M g H T T ~ -.s.r.P ; < < : % % + O O O - n.o     ",
". X # * 8 d K ^ O.%.$.1.e.p.k.X.3 q r e 0 : ; % $ + O & x.Z.    ",
"o $ : t m B R +.>.i.a.M.V.B.N.-.M b n b e < ; % % + O X . 0.    ",
"X o & w m Z ( @.1.9.9.i.d.w.f.c s v n v q < : % $ + O X . _     ",
". X O > 3 y C A E %.+.@.$.:.4.l.% 0 e e 1 : % % + O o X @ %     ",
"  . X & > 3 i s g L V J ^ 0.g.q.h.% : < ; % $ + + o # b...      ",
"  . . X o # & - , 8 8 a F u d D j.% + $ $ + O O o X z } *       ",
"      . X X o @ # # & & 6 & * 1 8.A.A O o o o o X o 9 6.O       ",
"          . . . . o $ ; < t N ) #.F / y.I . + o O <.[ k         ",
"                  . . o @ = 4 5 z P Q f 1 W 3 ; 2 l             ",
"                                      . 0 Y z.o.o               ",
"                                              X                 ",
"                                                                ",
"                                                                ",
"S.                                                              ",
"S.                                                            S.",
"S.S.                                                        S.S.",
"S.S.S.                                                    S.S.S.",
"S.S.S.S.S.                                          S.S.S.S.S.S."
};
