/* XPM */
static char *_3ea5e3e3e6a4e63f29da9917bcce613[] = {
/* columns rows colors chars-per-pixel */
"64 64 256 2 ",
"   c #000000",
".  c #0B0100",
"X  c #130200",
"o  c #1B0100",
"O  c #1B0801",
"+  c #1A100E",
"@  c #230200",
"#  c #2B0200",
"$  c #230A00",
"%  c #2B0A01",
"&  c #330100",
"*  c #3B0200",
"=  c #340A00",
"-  c #3B0B00",
";  c #2D1300",
":  c #341301",
">  c #3C1201",
",  c #381606",
"<  c #430100",
"1  c #4A0100",
"2  c #440B01",
"3  c #4C0B01",
"4  c #530200",
"5  c #5C0000",
"6  c #530C01",
"7  c #5B0B00",
"8  c #431202",
"9  c #491401",
"0  c #421A01",
"q  c #4B1C02",
"w  c #531200",
"e  c #5B1201",
"r  c #531C03",
"t  c #5C1C02",
"y  c #561009",
"u  c #630100",
"i  c #6A0100",
"p  c #630B02",
"a  c #6B0C02",
"s  c #730000",
"d  c #7C0100",
"f  c #720A03",
"g  c #7B0C00",
"h  c #621301",
"j  c #6B1402",
"k  c #621B01",
"l  c #6B1901",
"z  c #60140B",
"x  c #741402",
"c  c #7B1302",
"v  c #721A01",
"b  c #7B1B01",
"n  c #4D2100",
"m  c #5B2501",
"M  c #512500",
"N  c #622302",
"B  c #632E02",
"V  c #722402",
"C  c #7D2502",
"Z  c #742A01",
"A  c #7F2806",
"S  c #6E3303",
"D  c #6B350C",
"F  c #773407",
"G  c #622612",
"H  c #6C4015",
"J  c #840100",
"K  c #8E0000",
"L  c #8B0E01",
"P  c #870801",
"I  c #930000",
"U  c #9C0000",
"Y  c #841401",
"T  c #8D1201",
"R  c #831A01",
"E  c #8D1C01",
"W  c #85190B",
"Q  c #921600",
"!  c #9B1402",
"~  c #941B01",
"^  c #9B1D00",
"/  c #AB1701",
"(  c #A21B02",
")  c #AB1C01",
"_  c #A61804",
"`  c #B81B01",
"'  c #862B01",
"]  c #852201",
"[  c #962203",
"{  c #9A2403",
"}  c #932B03",
"|  c #9B2D00",
" . c #91230D",
".. c #8A3300",
"X. c #8D3902",
"o. c #863506",
"O. c #9B3301",
"+. c #9E3A02",
"@. c #9E3C09",
"#. c #943B07",
"$. c #8D2E16",
"%. c #A42201",
"&. c #AD2502",
"*. c #A52B00",
"=. c #AC2C01",
"-. c #B32402",
";. c #B52900",
":. c #BB2C01",
">. c #BC2705",
",. c #A13300",
"<. c #A13A03",
"1. c #AA3900",
"2. c #A33B0B",
"3. c #B43400",
"4. c #BB3101",
"5. c #BC3B01",
"6. c #B53B05",
"7. c #A03317",
"8. c #C62B03",
"9. c #C52500",
"0. c #D02800",
"q. c #C23300",
"w. c #C93501",
"e. c #C33C01",
"r. c #CC3C02",
"t. c #D33400",
"y. c #D33902",
"u. c #E23E00",
"i. c #944205",
"p. c #9E4302",
"a. c #994606",
"s. c #91540E",
"d. c #934E1C",
"f. c #8A5110",
"g. c #A34304",
"h. c #AC4201",
"j. c #A34A01",
"k. c #A74D09",
"l. c #BE4100",
"z. c #B44D01",
"x. c #BD4A00",
"c. c #B84806",
"v. c #AD5102",
"b. c #B65400",
"n. c #B95409",
"m. c #AB5312",
"M. c #BA5210",
"N. c #BF650C",
"B. c #BE7F13",
"V. c #A65920",
"C. c #B57B3A",
"Z. c #C24501",
"A. c #C94803",
"S. c #D34202",
"D. c #DB4302",
"F. c #D54A01",
"G. c #DB4B01",
"H. c #D94E09",
"J. c #C45304",
"K. c #C45B01",
"L. c #CC5C01",
"P. c #C95404",
"I. c #D45403",
"U. c #DD5302",
"Y. c #D35B01",
"T. c #DB5902",
"R. c #CE5914",
"E. c #E14A02",
"W. c #E35302",
"Q. c #E55A01",
"!. c #EB5D01",
"~. c #E85705",
"^. c #C96607",
"/. c #DB6303",
"(. c #D56704",
"). c #CE7E08",
"_. c #D87309",
"`. c #C86216",
"'. c #C86A17",
"]. c #D17713",
"[. c #C97B1C",
"{. c #E36301",
"}. c #EC6202",
"|. c #E36A01",
" X c #EA6C02",
".X c #E3680E",
"XX c #F26B02",
"oX c #EC7202",
"OX c #E97A08",
"+X c #F47501",
"@X c #F27A01",
"#X c #F67D06",
"$X c #F06B11",
"%X c #E36315",
"&X c #CB5D22",
"*X c #C67620",
"=X c #D66A22",
"-X c #E77D20",
";X c #B98213",
":X c #DD9B0B",
">X c #E78607",
",X c #F68400",
"<X c #F88401",
"1X c #F58C01",
"2X c #FA8D00",
"3X c #F4860C",
"4X c #ED940E",
"5X c #F69302",
"6X c #FB9401",
"7X c #FB9901",
"8X c #FA9B0A",
"9X c #F49908",
"0X c #EC8D17",
"qX c #F58C1C",
"wX c #E39C14",
"eX c #E89715",
"rX c #F89610",
"tX c #F89F10",
"yX c #FAA204",
"uX c #FBAA07",
"iX c #FBBD04",
"pX c #FAB30A",
"aX c #FABA0C",
"sX c #FAB307",
"dX c #F6A818",
"fX c #F7B715",
"gX c #D98A2A",
"hX c #DD8E3E",
"jX c #E58C28",
"kX c #E99A27",
"lX c #F19329",
"zX c #F59E32",
"xX c #EB9933",
"cX c #EEAA25",
"vX c #F9AB2E",
"bX c #F4B621",
"nX c #F6B53A",
"mX c #F2AE36",
"MX c #FCC808",
"NX c #FBD00A",
"BX c #F8C313",
"VX c #F9C31C",
"CX c #FACC17",
"ZX c #FCE51C",
"AX c #FBC222",
"SX c #FDDA20",
"DX c #FAD32D",
"FX c #FDE22B",
"GX c #FDEC34",
"HX c #F4AA46",
"JX c #FCD147",
"KX c #FCDD53",
"LX c #FCF055",
"PX c #FBED48",
"IX c #FDEB72",
"UX c None",
/* pixels */
"UXUXUXUXUXUXUXUXUXUXUXUXUX                                                                                UXUXUXUXUXUXUXUXUXUXUX",
"UXUXUXUXUXUXUXUXUX                                                                                              UXUXUXUXUXUXUXUX",
"UXUXUXUXUXUX                                                                                                        UXUXUXUXUXUX",
"UXUXUXUXUX                                                                                                            UXUXUXUXUX",
"UXUXUXUX                                                                                                                UXUXUXUX",
"UXUXUX                                                                                                                    UXUXUX",
"UXUX                                                                                                                      UXUXUX",
"UX                                                                                                                          UXUX",
"UX                                                                                                                          UXUX",
"UX                                                                                                                            UX",
"UX                                                                                                                            UX",
"                                                                                                                              UX",
"                                                                                                                              UX",
"                                                                                                                              UX",
"                                                                  . .                                                           ",
"                                                          .         X o o X $ 8 w >   X - # X X X                               ",
"                                                            . o O . X w h.|.}.qX`.=XxXzXC 7 h 3 * @                             ",
"                                          . X X X X O X X . @ % # - 3 k b.K.OXp.q m /.9 i.lXz.+.p.Z h @                         ",
"                                    . . .   X X X O % > 0 q m Z #.g.n.Y.@XoX>X(.v._.&XH.4.I.-XrX@X+Xv.t                         ",
"                        . . . . X . . X X X . % @ # & < h h v } Z.}.XX/.v.a.P.dX0XD   . X   @ '.wX5XI.h.S X                     ",
"                  . . . . . . X X X X X X o X = 3 u g L ! ) :.e.G.H.+.V 6.OXg.q > % X . X . X o # M.v $XA.N                     ",
"              .   . . X X X O X o O $ @ $ % 6 a Y Q _ >.:.y.S.y.R.M.+.T.#.h 2 X X X o X X X X X . o ] l g.aX' X                 ",
"          . . . X X X o o @ @ # # % - 2 6 6 7 c Y ^ %.3.5.l.Z.Z.1.*.~.l 6 1 * o o o o o o o o X X X X r #.m DXO., .             ",
"        . . . X X X O O # % = - 2 - 2 2 6 6 p g Y | 3.I. XoX+XoX|.3X..t & @ @ @ @ @ @ @ @ o o o o X X o > k.kXcXO.=             ",
"    . . . X X X O @ # = = - 2 2 w e x W Y T _ _ ;.r.W.}.T.L.K.v.|.v.[.o # # # # # # # # @ @ @ o @ o o X X @ # (.!.Z             ",
".   . . . X O $ % = = - 2 3 6 e e j x Y ~ _ / ` 0.y.D.H.L.bXdX@X_.' V ] 2 * * * * & & # # # # @ @ o o o o O q % :XT.            ",
"  . . . o # % - 2 9 e w t e h v x b R [ { [ &.;.;.q.e.A.(.>X,X0Xw k 3 * 4 1 1 < < < * & * & # # @ # @ @ o @ % B cXbX*           ",
"  . X O $ = - 9 w e l V ] b  .R E ~ %.%.=.4.4.4.r.G.{.@XiXNXdX>X^.g.< 4 5 5 5 5 4 1 1 < * & & & # # @ @ o = : q i.s.jXX         ",
". . X X @ % = 2 w p v R } O.,.*.3.;.;.8.r.y.D.G.W.}.@X5XiXBXoXjX^.4 u i s s s u 5 4 4 < * * * & # # # @ @ & z i.N.O }.r         ",
". X X o # % - 3 7 j Y Y ~ *.3.e.A.F.U.{. X+X@X@X1X7XsXDX9XtX#X9 z a i d J J J s i u 4 1 < < * * & & # # @ o o . N *XJXV         ",
"X @ # - 2 4 p a g Y T ~ ( &.4.r.F.U.}.@X,X2X7XuXiXCXFXfXyXpXdX' x Y J K I I K J s u 5 4 1 < * * & & & # # o X X . H ;XZ         ",
". o # - < 6 7 g T ! / ) >.w.S.W.Q.XX#X2X7XsXMXLXPXZXNXMXMXSXMXoXP.T J I U U I J d u 5 4 4 < < * & & & # @ @ o X . . B.N         ",
". . X @ * 2 a g T ! / ` 9.t.D.W.!.XX+X#X,X<X,X8XfX7X<X<X6XKXCXa.x.[ J I U U K J s i 5 4 1 < < * & & # # # o o X .   tXq         ",
". X X O - 3 4 x W T ! ( ) 9.t.u.E.~.}.{.!.Q.5XyXpXdXAXyX+XtXaXt < u s K K I K d s u 5 1 < < * * & & & @ @ o X X X F tXO         ",
". . X @ # = 2 4 y a c Y ~ ! -.:.w.y.r.D.G.G.W.Q.!.!.#XvXdXrX,XhX& 4 u s d J d s i 5 4 < < * * & & # # @ @ o X X . #.qX          ",
". . X X o @ # - 6 7 a x W Y E ^ %.-.4.4.e.G.F.F.Q.XX|.#X0XnX|.P.zX3 4 5 i s i u 5 4 1 < * * & & # # @ @ o o X ; q gX6.          ",
"  . . X X O # - 2 3 7 p x x c Y E Q E ( ( %.;.5.e.5.6.5.A.I.|.kXC.t h 1 4 5 5 4 4 < < * * & & # @ @ @ o o o 0 nXnX.X-           ",
"  . . . X o @ % = < 2 3 6 6 7 h j v x R R R E | 1.x._.vXgXM.c.{.n.@.@ & < < 1 < < * * & & # @ @ @ @ o o = 0 ].wX2.^             ",
"  .   . . . X O O # % = - 2 2 3 w e e h h v v ] } O.c.g c v 2.6.}.d.o # & & * * & & & # # @ @ @ @ o o @ X k ).K.H.#             ",
"        . . . X X O @ # % = = - - 2 3 w 6 w t h v b w w 6 f O.h.aX8XQ u # @ # @ @ # @ @ @ @ @ o o X X # 2.j.o.OXe               ",
"          . . . . X X o O # # % = = = = 8 - z y 8 - - 2 - 2 d r.4XSXGXAX^ & o o @ o @ o o o o X o X X % : t aXV.a.              ",
"          .   . . . X X X X o O @ @ # $ # % % % % = & - 1 4 p p L r.BXIXAXA.6 - 8 % X o X o @ o o X $ : r dXeXHX1.              ",
"                . . . . . . X X X X o @ # # & - 1 4 f P P ! -.4.3.| ^ x.Q.9X'.r = . X X X @ o o X . . `.oXeXv.X.                ",
"                        . . . . . . . X X X o @ & * < 4 p R *.e.Q.I.P.j.X...c.tXm.X % o b lX% o f.%Xw.P.o.S ,                   ",
"                        .     .   . . . . . . X O o # - r N V ' h.x.L./.L.b.k.i.o.{ 9.D.=X8.;.=.p 3 6.B M                       ",
"                                            . X X O $ O X O # # # # < e v x f u u f $.X o @ * 1 i 7.n 0                         ",
"                                                            X .       +       # < * @ @ & G $.$., ; >                           ",
"                                                                      .     .   & f  .2.g.Z %   . ;                             ",
"                                                                              . . @ @ O .     O .                               ",
"                                                                                                                                ",
"UX                                                                                                                              ",
"UX                                                                                                                              ",
"UX                                                                                                                            UX",
"UX                                                                                                                            UX",
"UX                                                                                                                            UX",
"UXUX                                                                                                                          UX",
"UXUX                                                                                                                          UX",
"UXUX                                                                                                                        UXUX",
"UXUXUX                                                                                                                    UXUXUX",
"UXUXUXUX                                                                                                                UXUXUXUX",
"UXUXUXUXUX                                                                                                          UXUXUXUXUXUX",
"UXUXUXUXUXUX                                                                                                      UXUXUXUXUXUXUX",
"UXUXUXUXUXUXUXUX                                                                                              UXUXUXUXUXUXUXUXUX",
"UXUXUXUXUXUXUXUXUXUXUXUXUX                                                                        UXUXUXUXUXUXUXUXUXUXUXUXUXUXUX"
};
